<?xml version="1.0" standalone="no"?>
<!DOCTYPE svg PUBLIC "-//W3C//DTD SVG 20010904//EN"
 "http://www.w3.org/TR/2001/REC-SVG-20010904/DTD/svg10.dtd">
<svg version="1.0" xmlns="http://www.w3.org/2000/svg"
 width="16.000000pt" height="16.000000pt" viewBox="0 0 16.000000 16.000000"
 preserveAspectRatio="xMidYMid meet">
<metadata>
Created by potrace 1.11, written by Peter Selinger 2001-2013
</metadata>
<g transform="translate(0.000000,16.000000) scale(0.000645,-0.000645)"
fill="#000000" stroke="none">
<path d="M12228 18258 c-19 -24 -48 -61 -64 -83 -16 -22 -36 -49 -46 -60 -233
-285 -452 -504 -733 -734 -11 -9 -58 -44 -105 -77 -420 -303 -838 -503 -1345
-645 -82 -22 -158 -43 -169 -44 -12 -2 -51 -10 -87 -18 -66 -15 -75 -17 -184
-37 -108 -19 -278 -41 -425 -55 -286 -26 -931 -26 -1245 0 -27 3 -86 7 -130
10 -160 12 -313 25 -341 30 -12 2 -61 6 -110 10 -49 3 -96 8 -104 10 -8 2 -46
7 -85 10 -38 4 -81 8 -95 10 -14 2 -54 6 -90 10 -36 3 -81 8 -100 10 -45 6
-209 24 -280 31 -30 3 -68 7 -85 9 -16 2 -61 7 -100 10 -38 3 -86 8 -105 10
-19 2 -66 7 -105 10 -38 3 -90 8 -115 11 -44 4 -79 7 -250 19 -47 3 -105 8
-130 10 -25 3 -94 7 -155 11 -60 3 -122 7 -136 9 -43 5 -437 18 -564 18 -113
0 -398 -11 -475 -18 -19 -2 -66 -6 -105 -9 -38 -4 -81 -8 -95 -10 -14 -3 -50
-8 -80 -11 -30 -4 -64 -9 -75 -11 -11 -3 -36 -7 -55 -10 -19 -3 -66 -12 -105
-21 -38 -8 -78 -16 -87 -18 -273 -58 -645 -214 -873 -366 -256 -172 -457 -432
-563 -729 -60 -170 -85 -271 -107 -435 -13 -90 -14 -99 -20 -175 -4 -41 -9
-91 -11 -110 -5 -43 -5 -510 0 -565 2 -22 7 -96 11 -165 4 -69 8 -141 10 -160
1 -19 6 -78 10 -130 7 -95 10 -141 19 -248 21 -245 22 -277 11 -347 -4 -27 -9
-59 -10 -70 -2 -11 -10 -58 -19 -105 -8 -47 -18 -101 -20 -120 -10 -78 -80
-291 -125 -385 -27 -55 -75 -134 -106 -175 -63 -82 -227 -248 -375 -380 -237
-211 -320 -293 -320 -315 0 -19 39 -89 235 -425 76 -129 146 -251 157 -270 11
-19 39 -66 61 -105 164 -281 374 -726 416 -880 27 -102 32 -254 16 -485 -13
-195 -10 -450 10 -695 9 -116 16 -182 19 -202 3 -11 7 -44 11 -73 4 -29 8 -60
10 -69 1 -9 6 -36 11 -61 4 -25 8 -47 9 -50 1 -3 5 -25 9 -50 5 -25 21 -94 36
-155 146 -573 422 -951 830 -1138 77 -36 214 -83 262 -91 15 -3 31 -7 35 -9 5
-3 28 -8 53 -11 25 -3 55 -8 68 -11 13 -2 55 -7 95 -10 40 -4 88 -8 107 -11
39 -5 468 -5 515 0 17 2 77 6 135 11 58 4 112 8 120 10 8 2 51 6 95 10 44 4
94 8 110 10 17 3 59 7 95 10 36 4 72 8 80 10 8 2 47 7 85 11 39 3 79 8 89 10
10 2 51 6 90 10 102 9 134 12 201 18 116 12 278 31 345 41 61 9 117 17 141 21
14 2 41 6 60 8 60 8 111 17 249 41 74 14 153 27 175 31 22 3 42 7 45 9 3 2 26
6 50 10 25 3 61 10 80 15 19 5 51 11 72 14 20 3 143 28 275 56 131 28 249 53
263 56 14 3 85 18 159 35 73 16 152 34 175 38 22 5 221 47 441 94 220 47 412
88 426 90 14 3 73 15 130 26 57 12 115 23 129 26 14 3 36 7 50 10 45 10 74 15
110 21 19 3 37 7 40 9 3 2 24 6 46 9 42 7 58 10 139 26 28 5 64 12 80 15 17 4
47 8 67 10 20 2 54 8 75 13 21 6 60 13 86 17 47 6 65 9 117 20 14 2 48 7 75
10 28 4 57 8 65 10 8 2 35 7 60 10 25 3 56 8 70 10 14 2 63 9 110 15 47 6 96
13 110 15 14 2 48 7 75 10 28 3 64 7 80 10 28 4 62 8 195 20 30 3 71 7 90 10
199 22 513 23 630 0 13 -3 42 -7 65 -10 228 -33 530 -155 752 -305 178 -119
273 -216 543 -555 79 -99 160 -198 180 -219 81 -90 149 -156 161 -156 7 0 114
103 238 228 124 126 251 251 281 278 31 27 74 65 95 84 38 33 164 135 236 190
179 137 478 311 664 385 91 36 265 95 265 90 0 -3 11 0 24 5 24 9 154 38 211
47 17 2 41 6 55 9 134 22 517 22 685 -1 17 -2 53 -6 81 -10 29 -3 62 -8 75
-10 13 -3 41 -7 64 -11 150 -22 422 -80 660 -139 33 -9 69 -17 80 -20 18 -4
129 -31 165 -40 8 -3 80 -20 160 -40 80 -19 156 -38 170 -42 34 -9 29 -7 180
-41 74 -17 146 -33 160 -36 81 -16 280 -58 310 -66 19 -5 49 -11 65 -13 17 -3
41 -8 55 -11 14 -3 36 -8 50 -10 63 -11 199 -37 240 -46 25 -5 59 -12 75 -15
17 -3 68 -12 115 -20 47 -8 102 -17 124 -21 21 -3 48 -8 60 -10 11 -2 64 -11
116 -19 52 -9 106 -18 120 -20 14 -2 45 -7 70 -10 25 -3 59 -9 75 -12 17 -3
41 -6 55 -8 78 -9 147 -18 164 -21 10 -2 44 -6 75 -10 31 -3 65 -8 76 -10 11
-2 45 -6 75 -9 51 -4 87 -8 180 -20 19 -3 69 -7 110 -10 41 -3 89 -7 105 -10
17 -2 75 -6 130 -10 55 -4 119 -8 143 -10 294 -27 1162 -26 1460 0 138 13 170
16 212 21 25 3 70 10 100 15 30 6 69 13 85 15 17 3 71 17 120 30 50 14 97 27
105 29 33 7 198 74 265 107 444 220 746 584 920 1113 41 123 87 299 99 375 3
19 7 44 10 55 2 11 7 40 11 65 4 25 9 53 10 62 2 9 7 48 10 85 4 37 8 75 10
83 24 92 24 912 0 1010 -2 8 -6 53 -10 100 -3 47 -8 96 -11 110 -2 14 -6 45
-9 70 -9 91 -17 164 -20 182 -27 138 -27 579 0 719 3 13 7 41 11 64 50 344
255 804 567 1276 17 25 17 27 0 46 -10 11 -43 28 -73 38 -212 70 -413 207
-625 426 -233 242 -355 421 -435 644 -37 101 -72 252 -85 365 -3 30 -9 71 -12
90 -3 19 -6 211 -8 425 -2 215 -5 401 -8 415 -2 14 -7 48 -11 75 -6 41 -30
156 -51 238 -28 115 -106 297 -178 416 -131 217 -331 404 -569 529 -143 76
-372 153 -523 176 -319 51 -601 53 -1070 10 -33 -3 -71 -7 -85 -9 -14 -2 -63
-6 -110 -10 -85 -7 -105 -9 -190 -19 -25 -4 -72 -8 -105 -11 -33 -2 -85 -7
-115 -10 -113 -10 -189 -15 -330 -20 -80 -3 -176 -7 -215 -10 -38 -3 -137 -7
-220 -10 -82 -4 -188 -8 -235 -10 -509 -24 -1629 -24 -1804 0 -17 2 -80 7
-141 10 -60 3 -126 7 -145 9 -19 2 -66 7 -105 10 -70 6 -139 13 -205 21 -19 2
-60 6 -90 10 -30 3 -64 7 -75 10 -11 2 -42 7 -70 10 -170 22 -524 105 -745
176 -355 113 -827 319 -1152 502 -27 15 -69 39 -95 53 -27 15 -91 52 -143 83
-52 31 -103 60 -112 66 -10 5 -74 46 -144 90 -69 44 -134 85 -143 90 -29 17
-256 169 -261 175 -3 3 -25 19 -50 35 -79 53 -317 223 -456 326 -75 55 -142
103 -149 105 -7 3 -28 -14 -47 -38z m148 -153 c32 -5 103 -43 159 -85 160
-119 541 -380 554 -380 5 0 11 -3 13 -8 2 -4 53 -39 113 -78 698 -452 1334
-746 1989 -920 55 -14 111 -28 125 -30 14 -3 40 -9 56 -14 31 -9 195 -43 275
-56 25 -4 47 -8 50 -9 3 0 28 -4 55 -9 51 -7 71 -10 135 -20 52 -7 196 -24
265 -30 114 -11 170 -16 220 -20 308 -27 1111 -28 1590 -1 105 6 258 15 335
20 131 8 243 15 312 20 36 2 104 6 150 10 120 8 190 13 308 20 58 4 123 8 145
10 22 2 103 7 180 10 77 4 160 8 185 10 244 19 1094 27 1250 13 145 -13 331
-48 435 -82 240 -77 434 -195 606 -366 145 -144 231 -280 298 -465 31 -86 67
-224 76 -289 2 -17 6 -44 9 -61 5 -29 15 -129 21 -210 2 -22 6 -157 9 -300 7
-325 16 -571 22 -599 2 -11 7 -41 10 -66 20 -164 118 -398 239 -572 85 -122
222 -282 364 -424 152 -153 249 -228 387 -299 105 -54 133 -82 138 -135 8 -82
-66 -254 -183 -429 -46 -69 -141 -227 -141 -235 0 -3 -11 -29 -24 -58 -47
-101 -107 -304 -121 -408 -3 -25 -8 -52 -10 -60 -13 -43 -19 -178 -19 -375 0
-240 5 -327 29 -530 2 -22 7 -69 10 -105 3 -36 7 -81 10 -100 2 -19 7 -69 11
-110 3 -41 8 -83 10 -92 17 -92 24 -644 11 -818 -12 -163 -25 -293 -32 -320
-2 -8 -7 -35 -10 -60 -3 -25 -10 -65 -15 -90 -5 -25 -12 -56 -14 -70 -3 -14
-7 -34 -10 -45 -2 -11 -7 -33 -11 -50 -17 -72 -89 -303 -115 -371 -135 -338
-298 -569 -551 -780 -85 -70 -282 -182 -384 -218 -27 -10 -59 -21 -70 -26 -66
-28 -305 -91 -400 -106 -27 -4 -57 -9 -65 -10 -23 -5 -89 -13 -150 -19 -30 -3
-64 -8 -75 -10 -110 -22 -785 -22 -1105 0 -30 2 -140 6 -245 10 -353 12 -525
22 -690 40 -22 3 -83 9 -135 15 -106 12 -172 20 -210 25 -14 2 -45 7 -70 10
-25 3 -70 10 -100 15 -52 9 -74 12 -165 25 -22 3 -51 8 -65 11 -14 2 -36 6
-50 9 -14 3 -52 10 -85 15 -33 6 -82 15 -110 21 -27 5 -106 20 -175 34 -126
24 -446 91 -575 120 -38 9 -79 18 -90 20 -32 7 -154 35 -240 55 -44 11 -181
42 -305 70 -124 28 -245 55 -270 61 -25 6 -52 12 -60 14 -8 2 -60 13 -115 25
-55 12 -111 24 -125 27 -14 2 -41 8 -60 13 -51 13 -431 89 -476 95 -22 3 -49
7 -61 9 -11 3 -43 8 -70 12 -26 3 -56 8 -65 10 -9 1 -48 6 -85 9 -37 4 -76 9
-86 11 -29 5 -284 17 -367 17 -88 -1 -298 -12 -320 -18 -8 -3 -35 -7 -60 -10
-258 -31 -563 -138 -845 -294 -112 -63 -434 -293 -480 -345 -6 -6 -44 -40 -85
-76 -41 -35 -169 -158 -284 -272 -234 -232 -227 -228 -321 -184 -89 41 -250
187 -420 380 -6 6 -69 79 -140 161 -233 271 -296 326 -471 413 -117 59 -272
118 -354 136 -74 16 -129 27 -160 32 -19 3 -46 7 -60 10 -128 22 -566 22 -700
0 -14 -3 -50 -7 -80 -10 -30 -4 -68 -9 -85 -11 -16 -3 -46 -7 -65 -9 -47 -6
-105 -15 -165 -26 -27 -5 -66 -12 -85 -14 -19 -3 -45 -8 -56 -10 -12 -2 -39
-7 -60 -10 -22 -4 -115 -20 -209 -36 -93 -17 -183 -32 -200 -35 -76 -13 -92
-15 -115 -20 -14 -3 -104 -19 -200 -35 -96 -17 -209 -37 -250 -45 -41 -8 -88
-16 -105 -18 -16 -3 -64 -12 -105 -20 -41 -9 -91 -18 -110 -21 -19 -3 -84 -15
-145 -26 -60 -12 -137 -26 -169 -31 -33 -6 -62 -12 -65 -14 -3 -1 -24 -6 -46
-9 -31 -5 -650 -127 -715 -141 -8 -2 -49 -11 -90 -20 -41 -9 -86 -18 -100 -21
-14 -2 -36 -7 -50 -10 -44 -10 -49 -11 -315 -63 -115 -22 -226 -43 -245 -46
-19 -3 -46 -8 -60 -10 -51 -11 -75 -15 -115 -21 -22 -3 -92 -14 -155 -24 -109
-18 -164 -26 -227 -34 -15 -2 -95 -14 -178 -25 -82 -12 -166 -24 -185 -26 -19
-2 -73 -9 -120 -15 -117 -15 -147 -18 -210 -25 -30 -3 -71 -8 -90 -10 -19 -3
-60 -7 -90 -10 -30 -3 -71 -8 -90 -10 -19 -2 -64 -7 -100 -10 -68 -6 -124 -11
-200 -19 -25 -3 -81 -8 -125 -11 -44 -4 -91 -8 -105 -10 -14 -2 -72 -7 -130
-10 -58 -4 -123 -8 -145 -11 -56 -5 -435 -6 -465 0 -14 3 -54 7 -90 10 -229
20 -487 109 -665 229 -33 23 -65 46 -71 51 -6 6 -35 31 -64 56 -63 55 -162
172 -220 260 -119 185 -229 497 -274 785 -9 55 -18 109 -20 120 -2 11 -7 54
-11 95 -3 41 -8 86 -10 100 -18 116 -23 591 -12 1020 5 195 -2 271 -39 397
-27 94 -131 315 -244 518 -40 72 -82 148 -94 170 -99 177 -187 337 -234 425
-19 36 -48 90 -65 120 -96 172 -127 261 -120 338 8 88 36 127 245 335 216 217
286 297 372 430 52 79 117 208 141 277 1 3 6 16 12 30 44 106 125 472 126 570
0 59 -10 243 -18 330 -2 19 -6 82 -10 140 -3 58 -8 119 -10 135 -19 143 -27
800 -12 970 68 776 357 1241 948 1527 206 100 520 198 744 232 22 4 65 10 95
16 30 5 84 12 120 16 36 3 73 8 82 9 64 12 304 20 603 19 361 -1 457 -4 780
-29 33 -3 96 -7 140 -10 44 -2 105 -7 135 -10 61 -5 169 -14 270 -21 64 -4
109 -8 205 -19 28 -3 73 -7 100 -10 28 -2 75 -6 105 -9 30 -3 82 -8 115 -12
33 -3 71 -7 85 -9 14 -2 59 -7 100 -10 41 -3 86 -8 100 -10 32 -4 163 -17 305
-30 22 -2 67 -6 100 -9 95 -10 155 -15 230 -21 39 -3 93 -8 120 -10 28 -3 91
-7 140 -10 50 -3 122 -7 160 -10 172 -14 687 -20 870 -11 125 7 283 17 314 21
16 2 60 7 98 10 37 3 95 10 128 15 33 5 80 12 105 15 71 10 98 14 210 36 145
28 132 25 320 73 335 85 772 268 1040 436 157 98 417 289 496 364 6 6 51 48
100 92 149 137 269 260 329 339 86 113 145 179 207 234 34 30 123 61 157 55
14 -3 35 -7 47 -9z"/>
<path d="M12198 17537 c-178 -223 -372 -424 -563 -582 -33 -28 -62 -52 -65
-55 -7 -7 -174 -132 -196 -147 -11 -7 -44 -30 -74 -51 -257 -177 -664 -368
-985 -463 -178 -52 -341 -92 -465 -114 -14 -2 -68 -11 -120 -21 -52 -9 -102
-16 -110 -16 -8 0 -35 -4 -60 -8 -25 -5 -81 -11 -125 -15 -44 -4 -91 -8 -105
-11 -160 -26 -1007 -25 -1300 1 -25 2 -81 7 -125 10 -44 3 -102 8 -130 10 -27
3 -80 7 -116 10 -37 3 -82 7 -100 9 -19 3 -70 8 -114 11 -44 3 -87 8 -95 10
-8 2 -55 7 -104 10 -50 4 -97 8 -105 10 -9 1 -54 6 -101 10 -47 4 -92 8 -100
10 -8 1 -51 6 -95 9 -44 4 -102 9 -130 12 -27 2 -75 6 -105 9 -30 2 -80 7
-110 9 -30 3 -89 8 -130 11 -41 3 -95 7 -120 10 -42 4 -167 12 -320 20 -425
24 -1040 24 -1265 -1 -22 -2 -67 -6 -100 -9 -150 -12 -378 -45 -490 -70 -38
-8 -81 -18 -95 -21 -35 -7 -240 -65 -265 -74 -11 -5 -58 -23 -105 -41 -278
-107 -547 -302 -706 -513 -111 -146 -213 -375 -240 -535 -3 -14 -7 -32 -9 -39
-7 -20 -23 -127 -32 -212 -15 -145 -8 -635 12 -840 2 -19 6 -73 10 -120 3 -47
8 -103 10 -125 7 -67 21 -231 30 -377 6 -83 0 -129 -40 -353 -15 -82 -69 -276
-96 -347 -56 -145 -140 -248 -344 -423 -153 -132 -255 -224 -353 -320 l-102
-100 70 -119 c38 -65 70 -120 70 -122 0 -1 32 -55 70 -120 39 -64 70 -118 70
-120 0 -2 28 -52 63 -111 374 -637 468 -818 496 -953 14 -70 15 -108 6 -250
-14 -200 -9 -547 10 -740 7 -77 15 -152 21 -220 14 -158 54 -375 95 -520 7
-25 13 -49 15 -55 21 -96 124 -315 198 -425 72 -106 207 -241 309 -308 43 -29
80 -52 83 -52 2 0 36 -15 76 -34 67 -31 146 -60 194 -71 86 -21 164 -36 208
-41 28 -4 53 -8 56 -9 12 -7 229 -18 340 -18 136 1 388 13 550 27 178 16 257
22 370 31 30 3 80 7 110 9 30 3 96 8 145 11 50 4 106 8 125 10 19 2 64 6 100
10 36 3 81 8 100 10 19 3 93 11 164 20 71 9 145 18 165 21 79 12 97 15 121 19
14 2 42 7 63 10 20 3 54 7 75 10 20 3 73 12 117 20 44 8 96 17 115 20 19 3 58
10 85 15 28 5 61 11 75 14 42 7 226 42 270 51 14 3 36 7 50 10 14 3 72 14 130
26 58 11 116 23 130 25 14 2 36 7 50 10 14 3 34 8 45 10 22 4 256 51 295 59
14 3 41 8 60 11 19 3 38 8 41 10 4 2 24 6 44 10 21 3 45 7 54 9 9 2 99 20 201
40 102 19 192 37 200 40 8 2 33 6 55 10 22 3 74 12 115 20 41 8 91 17 110 20
19 3 60 10 90 15 30 5 73 12 95 16 22 3 43 8 46 10 3 1 30 6 60 9 30 3 61 8
69 10 8 2 35 7 60 10 25 2 54 7 65 9 11 2 47 7 80 11 32 4 66 8 75 10 8 1 42
6 75 10 32 4 67 8 76 10 9 2 40 6 70 10 30 3 61 8 69 10 8 2 31 7 50 10 31 6
279 47 355 60 17 3 46 8 65 11 19 4 42 8 50 9 8 1 35 5 60 8 242 34 450 51
630 50 99 0 273 -11 312 -19 13 -2 40 -6 61 -9 131 -17 287 -69 462 -155 273
-133 367 -211 615 -510 133 -160 171 -203 259 -290 53 -52 112 -109 132 -126
l35 -31 185 181 c101 100 213 206 248 236 35 30 69 60 75 65 6 6 34 28 61 50
28 21 52 42 55 45 12 14 172 131 256 188 170 114 356 213 529 282 74 29 253
87 295 95 117 23 199 37 229 40 138 14 188 17 276 17 102 1 300 -9 345 -17 14
-2 50 -7 80 -10 30 -3 62 -8 70 -10 8 -2 35 -7 60 -10 25 -4 68 -11 95 -16 28
-5 70 -12 95 -15 24 -3 47 -7 50 -9 4 -2 35 -9 71 -14 35 -6 75 -13 89 -16 14
-3 81 -17 150 -30 69 -13 136 -27 150 -30 14 -3 39 -8 55 -11 17 -3 104 -21
195 -41 91 -19 174 -37 184 -39 11 -2 72 -15 136 -29 64 -14 125 -27 136 -29
10 -2 118 -25 239 -51 267 -57 226 -48 375 -78 146 -30 359 -71 445 -86 33 -6
71 -13 85 -16 55 -11 310 -52 365 -59 17 -2 46 -6 65 -10 39 -6 80 -12 155
-21 28 -3 82 -10 120 -15 115 -15 208 -24 359 -35 44 -3 100 -8 125 -10 149
-13 424 -18 931 -19 711 0 868 8 1150 59 156 29 159 30 265 60 626 182 990
634 1140 1415 8 41 17 98 21 125 3 28 7 57 9 65 7 38 21 180 31 320 12 171 6
555 -11 695 -2 17 -6 55 -9 85 -4 30 -9 77 -12 104 -3 27 -7 56 -9 65 -1 9 -6
45 -10 81 -3 36 -8 72 -10 80 -2 8 -7 40 -10 70 -3 30 -8 66 -10 80 -27 176
-24 450 6 594 15 71 56 212 69 236 6 11 9 20 6 20 -2 0 13 40 34 88 89 207
195 394 362 645 55 82 98 150 96 151 -2 2 -37 13 -78 25 -96 29 -205 81 -300
144 -41 28 -77 53 -80 56 -3 3 -27 24 -55 46 -87 69 -254 242 -361 374 -10 13
-23 28 -29 35 -156 178 -248 389 -281 651 -5 33 -7 148 -5 255 6 456 6 519 -2
598 -31 345 -232 726 -494 937 -106 86 -118 95 -130 95 -7 0 -13 4 -13 8 0 14
-205 108 -307 141 -87 28 -197 55 -280 66 -21 3 -49 8 -63 10 -153 27 -748 27
-975 0 -16 -2 -66 -6 -110 -9 -128 -10 -196 -15 -260 -22 -33 -3 -96 -7 -140
-10 -44 -3 -107 -7 -140 -9 -33 -3 -229 -7 -435 -9 -343 -4 -736 -11 -1220
-22 -596 -13 -1186 0 -1450 31 -19 2 -62 7 -95 10 -521 52 -1076 204 -1612
441 -256 113 -658 324 -903 474 -293 180 -543 343 -807 527 -89 62 -163 113
-165 113 -2 0 -47 -56 -100 -123z"/>
</g>
</svg>
